<svg width="713" height="132" viewBox="0 0 713 132" fill="none" xmlns="http://www.w3.org/2000/svg">
<path d="M186.862 86.696C186.03 87.4 184.942 87.976 183.598 88.424C182.318 88.808 180.814 89 179.086 89C176.782 89 174.862 88.712 173.326 88.136C171.854 87.56 170.894 86.568 170.446 85.16C168.654 79.528 167.182 74.984 166.03 71.528C164.878 68.008 163.982 64.936 163.342 62.312H162.862C162.67 66.088 162.51 69.544 162.382 72.68C162.318 75.752 162.254 78.76 162.19 81.704C162.19 84.648 162.126 87.624 161.998 90.632C161.934 93.64 161.806 96.968 161.614 100.616C160.782 100.936 159.694 101.192 158.35 101.384C157.006 101.64 155.662 101.768 154.318 101.768C151.502 101.768 149.294 101.32 147.694 100.424C146.158 99.528 145.39 97.896 145.39 95.528L148.174 46.568C148.686 45.736 149.806 44.84 151.534 43.88C153.262 42.92 155.694 42.44 158.83 42.44C162.222 42.44 164.878 42.984 166.798 44.072C168.718 45.096 170.126 46.792 171.022 49.16C171.598 50.696 172.206 52.456 172.846 54.44C173.55 56.424 174.222 58.472 174.862 60.584C175.566 62.696 176.238 64.808 176.878 66.92C177.518 68.968 178.094 70.824 178.606 72.488H179.086C180.622 67.112 182.158 61.928 183.694 56.936C185.23 51.88 186.638 47.656 187.918 44.264C188.878 43.752 190.094 43.336 191.566 43.016C193.102 42.632 194.798 42.44 196.654 42.44C199.79 42.44 202.35 42.92 204.334 43.88C206.318 44.776 207.47 46.088 207.79 47.816C208.046 49.096 208.302 51.08 208.558 53.768C208.878 56.392 209.198 59.368 209.518 62.696C209.838 66.024 210.158 69.544 210.478 73.256C210.798 76.968 211.086 80.552 211.342 84.008C211.662 87.4 211.918 90.536 212.11 93.416C212.302 96.232 212.43 98.408 212.494 99.944C211.406 100.584 210.254 101.032 209.038 101.288C207.886 101.608 206.382 101.768 204.526 101.768C202.094 101.768 200.046 101.352 198.382 100.52C196.718 99.688 195.822 98.056 195.694 95.624C195.31 88.648 195.054 82.376 194.926 76.808C194.862 71.24 194.734 66.568 194.542 62.792H194.062C193.422 65.288 192.494 68.424 191.278 72.2C190.062 75.976 188.59 80.808 186.862 86.696ZM241.858 90.632C242.946 90.632 244.13 90.536 245.41 90.344C246.754 90.088 247.746 89.768 248.386 89.384V81.704L241.474 82.28C239.682 82.408 238.21 82.792 237.058 83.432C235.906 84.072 235.33 85.032 235.33 86.312C235.33 87.592 235.81 88.648 236.77 89.48C237.794 90.248 239.49 90.632 241.858 90.632ZM241.09 52.904C244.546 52.904 247.682 53.256 250.498 53.96C253.378 54.664 255.81 55.752 257.794 57.224C259.842 58.632 261.41 60.456 262.498 62.696C263.586 64.872 264.13 67.464 264.13 70.472V91.976C264.13 93.64 263.65 95.016 262.69 96.104C261.794 97.128 260.706 98.024 259.426 98.792C255.266 101.288 249.41 102.536 241.858 102.536C238.466 102.536 235.394 102.216 232.642 101.576C229.954 100.936 227.618 99.976 225.634 98.696C223.714 97.416 222.21 95.784 221.122 93.8C220.098 91.816 219.586 89.512 219.586 86.888C219.586 82.472 220.898 79.08 223.522 76.712C226.146 74.344 230.21 72.872 235.714 72.296L248.29 70.952V70.28C248.29 68.424 247.458 67.112 245.794 66.344C244.194 65.512 241.858 65.096 238.786 65.096C236.354 65.096 233.986 65.352 231.682 65.864C229.378 66.376 227.298 67.016 225.442 67.784C224.61 67.208 223.906 66.344 223.33 65.192C222.754 63.976 222.466 62.728 222.466 61.448C222.466 59.784 222.85 58.472 223.618 57.512C224.45 56.488 225.698 55.624 227.362 54.92C229.218 54.216 231.394 53.704 233.89 53.384C236.45 53.064 238.85 52.904 241.09 52.904ZM290.429 100.904C289.789 101.096 288.765 101.288 287.357 101.48C286.013 101.672 284.605 101.768 283.133 101.768C281.725 101.768 280.445 101.672 279.293 101.48C278.205 101.288 277.277 100.904 276.509 100.328C275.741 99.752 275.133 98.984 274.685 98.024C274.301 97 274.109 95.688 274.109 94.088V65.288C274.109 63.816 274.365 62.568 274.877 61.544C275.453 60.456 276.253 59.496 277.277 58.664C278.301 57.832 279.549 57.096 281.021 56.456C282.557 55.752 284.189 55.144 285.917 54.632C287.645 54.12 289.437 53.736 291.293 53.48C293.149 53.16 295.005 53 296.861 53C299.933 53 302.365 53.608 304.157 54.824C305.949 55.976 306.845 57.896 306.845 60.584C306.845 61.48 306.717 62.376 306.461 63.272C306.205 64.104 305.885 64.872 305.501 65.576C304.157 65.576 302.781 65.64 301.373 65.768C299.965 65.896 298.589 66.088 297.245 66.344C295.901 66.6 294.621 66.888 293.405 67.208C292.253 67.464 291.261 67.784 290.429 68.168V100.904ZM359.178 92.552C358.858 95.56 357.962 97.864 356.49 99.464C355.082 101.064 353.002 101.864 350.25 101.864C348.202 101.864 346.378 101.384 344.778 100.424C343.178 99.4 341.45 97.704 339.594 95.336L330.09 83.432V100.904C329.386 101.032 328.33 101.192 326.922 101.384C325.578 101.64 324.202 101.768 322.794 101.768C321.386 101.768 320.106 101.672 318.954 101.48C317.866 101.288 316.938 100.904 316.17 100.328C315.402 99.752 314.794 98.984 314.346 98.024C313.962 97 313.77 95.688 313.77 94.088V38.504C314.474 38.312 315.498 38.12 316.842 37.928C318.25 37.672 319.658 37.544 321.066 37.544C322.474 37.544 323.722 37.64 324.81 37.832C325.962 38.024 326.922 38.408 327.69 38.984C328.458 39.56 329.034 40.36 329.418 41.384C329.866 42.344 330.09 43.624 330.09 45.224V70.568L346.602 53.672C349.93 53.672 352.586 54.408 354.57 55.88C356.618 57.352 357.642 59.208 357.642 61.448C357.642 62.408 357.482 63.304 357.162 64.136C356.842 64.904 356.33 65.704 355.626 66.536C354.986 67.368 354.122 68.264 353.034 69.224C352.01 70.12 350.794 71.176 349.386 72.392L343.818 77.192L359.178 92.552ZM389.344 102.536C385.568 102.536 382.048 102.024 378.784 101C375.584 99.912 372.768 98.312 370.336 96.2C367.968 94.088 366.08 91.432 364.672 88.232C363.328 85.032 362.656 81.288 362.656 77C362.656 72.776 363.328 69.16 364.672 66.152C366.08 63.08 367.904 60.584 370.144 58.664C372.384 56.68 374.944 55.24 377.824 54.344C380.704 53.384 383.648 52.904 386.656 52.904C390.048 52.904 393.12 53.416 395.872 54.44C398.688 55.464 401.088 56.872 403.072 58.664C405.12 60.456 406.688 62.6 407.776 65.096C408.928 67.592 409.504 70.312 409.504 73.256C409.504 75.432 408.896 77.096 407.68 78.248C406.464 79.4 404.768 80.136 402.592 80.456L378.88 84.008C379.584 86.12 381.024 87.72 383.2 88.808C385.376 89.832 387.872 90.344 390.688 90.344C393.312 90.344 395.776 90.024 398.08 89.384C400.448 88.68 402.368 87.88 403.84 86.984C404.864 87.624 405.728 88.52 406.432 89.672C407.136 90.824 407.488 92.04 407.488 93.32C407.488 96.2 406.144 98.344 403.456 99.752C401.408 100.84 399.104 101.576 396.544 101.96C393.984 102.344 391.584 102.536 389.344 102.536ZM386.656 64.808C385.12 64.808 383.776 65.064 382.624 65.576C381.536 66.088 380.64 66.76 379.936 67.592C379.232 68.36 378.688 69.256 378.304 70.28C377.984 71.24 377.792 72.232 377.728 73.256L394.144 70.568C393.952 69.288 393.248 68.008 392.032 66.728C390.816 65.448 389.024 64.808 386.656 64.808ZM433.679 84.968C433.679 86.632 434.191 87.816 435.215 88.52C436.303 89.224 437.807 89.576 439.727 89.576C440.687 89.576 441.679 89.512 442.703 89.384C443.727 89.192 444.623 88.968 445.391 88.712C445.967 89.416 446.447 90.216 446.831 91.112C447.279 91.944 447.503 92.968 447.503 94.184C447.503 96.616 446.575 98.6 444.719 100.136C442.927 101.672 439.727 102.44 435.119 102.44C429.487 102.44 425.135 101.16 422.063 98.6C419.055 96.04 417.551 91.88 417.551 86.12V45.032C418.255 44.84 419.247 44.648 420.527 44.456C421.871 44.2 423.279 44.072 424.751 44.072C427.567 44.072 429.743 44.584 431.279 45.608C432.879 46.568 433.679 48.648 433.679 51.848V57.992H446.255C446.639 58.696 446.991 59.592 447.311 60.68C447.695 61.704 447.887 62.856 447.887 64.136C447.887 66.376 447.375 68.008 446.351 69.032C445.391 69.992 444.079 70.472 442.415 70.472H433.679V84.968ZM473.749 82.184V100.616C473.045 100.808 471.925 101 470.389 101.192C468.917 101.384 467.445 101.48 465.973 101.48C464.501 101.48 463.189 101.352 462.037 101.096C460.949 100.904 460.021 100.52 459.253 99.944C458.549 99.368 458.005 98.568 457.621 97.544C457.237 96.52 457.045 95.176 457.045 93.512V48.296C457.045 46.952 457.397 45.928 458.101 45.224C458.869 44.456 459.893 43.848 461.173 43.4C463.349 42.632 465.877 42.088 468.757 41.768C471.637 41.384 474.709 41.192 477.973 41.192C486.805 41.192 493.461 43.048 497.941 46.76C502.421 50.472 504.661 55.496 504.661 61.832C504.661 65.8 503.637 69.192 501.589 72.008C499.541 74.824 497.109 77 494.293 78.536C496.597 81.672 498.869 84.616 501.109 87.368C503.349 90.12 505.109 92.616 506.389 94.856C505.749 97.096 504.565 98.824 502.837 100.04C501.173 101.192 499.285 101.768 497.173 101.768C495.765 101.768 494.549 101.608 493.525 101.288C492.501 100.968 491.605 100.52 490.837 99.944C490.069 99.368 489.365 98.664 488.725 97.832C488.085 97 487.477 96.104 486.901 95.144L478.837 82.184H473.749ZM479.797 69.416C482.229 69.416 484.149 68.808 485.557 67.592C486.965 66.312 487.669 64.456 487.669 62.024C487.669 59.592 486.869 57.768 485.269 56.552C483.733 55.272 481.269 54.632 477.877 54.632C476.917 54.632 476.149 54.664 475.573 54.728C474.997 54.792 474.357 54.888 473.653 55.016V69.416H479.797ZM561.178 77.672C561.178 81.64 560.57 85.192 559.354 88.328C558.138 91.4 556.41 93.992 554.17 96.104C551.994 98.216 549.37 99.816 546.298 100.904C543.226 101.992 539.802 102.536 536.026 102.536C532.25 102.536 528.826 101.96 525.754 100.808C522.682 99.656 520.026 98.024 517.786 95.912C515.61 93.736 513.914 91.112 512.698 88.04C511.482 84.968 510.874 81.512 510.874 77.672C510.874 73.896 511.482 70.472 512.698 67.4C513.914 64.328 515.61 61.736 517.786 59.624C520.026 57.448 522.682 55.784 525.754 54.632C528.826 53.48 532.25 52.904 536.026 52.904C539.802 52.904 543.226 53.512 546.298 54.728C549.37 55.88 551.994 57.544 554.17 59.72C556.41 61.832 558.138 64.424 559.354 67.496C560.57 70.568 561.178 73.96 561.178 77.672ZM527.578 77.672C527.578 81.576 528.314 84.584 529.786 86.696C531.322 88.744 533.434 89.768 536.122 89.768C538.81 89.768 540.858 88.712 542.266 86.6C543.738 84.488 544.474 81.512 544.474 77.672C544.474 73.832 543.738 70.888 542.266 68.84C540.794 66.728 538.714 65.672 536.026 65.672C533.338 65.672 531.258 66.728 529.786 68.84C528.314 70.888 527.578 73.832 527.578 77.672ZM617.428 77.672C617.428 81.64 616.82 85.192 615.604 88.328C614.388 91.4 612.66 93.992 610.42 96.104C608.244 98.216 605.62 99.816 602.548 100.904C599.476 101.992 596.052 102.536 592.276 102.536C588.5 102.536 585.076 101.96 582.004 100.808C578.932 99.656 576.276 98.024 574.036 95.912C571.86 93.736 570.164 91.112 568.948 88.04C567.732 84.968 567.124 81.512 567.124 77.672C567.124 73.896 567.732 70.472 568.948 67.4C570.164 64.328 571.86 61.736 574.036 59.624C576.276 57.448 578.932 55.784 582.004 54.632C585.076 53.48 588.5 52.904 592.276 52.904C596.052 52.904 599.476 53.512 602.548 54.728C605.62 55.88 608.244 57.544 610.42 59.72C612.66 61.832 614.388 64.424 615.604 67.496C616.82 70.568 617.428 73.96 617.428 77.672ZM583.828 77.672C583.828 81.576 584.564 84.584 586.036 86.696C587.572 88.744 589.684 89.768 592.372 89.768C595.06 89.768 597.108 88.712 598.516 86.6C599.988 84.488 600.724 81.512 600.724 77.672C600.724 73.832 599.988 70.888 598.516 68.84C597.044 66.728 594.964 65.672 592.276 65.672C589.588 65.672 587.508 66.728 586.036 68.84C584.564 70.888 583.828 73.832 583.828 77.672ZM641.71 84.968C641.71 86.632 642.222 87.816 643.246 88.52C644.334 89.224 645.838 89.576 647.758 89.576C648.718 89.576 649.71 89.512 650.734 89.384C651.758 89.192 652.654 88.968 653.422 88.712C653.998 89.416 654.478 90.216 654.862 91.112C655.31 91.944 655.534 92.968 655.534 94.184C655.534 96.616 654.606 98.6 652.75 100.136C650.958 101.672 647.758 102.44 643.15 102.44C637.518 102.44 633.166 101.16 630.094 98.6C627.086 96.04 625.582 91.88 625.582 86.12V45.032C626.286 44.84 627.278 44.648 628.558 44.456C629.902 44.2 631.31 44.072 632.782 44.072C635.598 44.072 637.774 44.584 639.31 45.608C640.91 46.568 641.71 48.648 641.71 51.848V57.992H654.286C654.67 58.696 655.022 59.592 655.342 60.68C655.726 61.704 655.918 62.856 655.918 64.136C655.918 66.376 655.406 68.008 654.382 69.032C653.422 69.992 652.11 70.472 650.446 70.472H641.71V84.968ZM703.188 87.08C703.188 91.944 701.364 95.752 697.716 98.504C694.068 101.256 688.692 102.632 681.588 102.632C678.9 102.632 676.404 102.44 674.1 102.056C671.796 101.672 669.812 101.096 668.148 100.328C666.548 99.496 665.268 98.472 664.308 97.256C663.412 96.04 662.964 94.6 662.964 92.936C662.964 91.4 663.284 90.12 663.924 89.096C664.564 88.008 665.332 87.112 666.228 86.408C668.084 87.432 670.196 88.36 672.564 89.192C674.996 89.96 677.78 90.344 680.916 90.344C682.9 90.344 684.404 90.056 685.428 89.48C686.516 88.904 687.06 88.136 687.06 87.176C687.06 86.28 686.676 85.576 685.908 85.064C685.14 84.552 683.86 84.136 682.068 83.816L679.188 83.24C673.62 82.152 669.46 80.456 666.708 78.152C664.02 75.784 662.676 72.424 662.676 68.072C662.676 65.704 663.188 63.56 664.212 61.64C665.236 59.72 666.676 58.12 668.532 56.84C670.388 55.56 672.596 54.568 675.156 53.864C677.78 53.16 680.66 52.808 683.796 52.808C686.164 52.808 688.372 53 690.42 53.384C692.532 53.704 694.356 54.216 695.892 54.92C697.428 55.624 698.644 56.552 699.54 57.704C700.436 58.792 700.884 60.104 700.884 61.64C700.884 63.112 700.596 64.392 700.02 65.48C699.508 66.504 698.836 67.368 698.004 68.072C697.492 67.752 696.724 67.432 695.7 67.112C694.676 66.728 693.556 66.408 692.34 66.152C691.124 65.832 689.876 65.576 688.596 65.384C687.38 65.192 686.26 65.096 685.236 65.096C683.124 65.096 681.492 65.352 680.34 65.864C679.188 66.312 678.612 67.048 678.612 68.072C678.612 68.776 678.932 69.352 679.572 69.8C680.212 70.248 681.428 70.664 683.22 71.048L686.196 71.72C692.34 73.128 696.692 75.08 699.252 77.576C701.876 80.008 703.188 83.176 703.188 87.08Z" fill="#AAD15D"/>
<path d="M119.418 74.5141L115.337 46.8297L112.72 29.096H90.081L88.3384 15.9802C87.3909 8.83814 78.8214 2.99219 69.2906 2.99219H51.9682C42.4408 2.99219 33.8697 8.83814 32.9222 15.9802L31.1813 29.096H8.53563L0.175816 85.7858C-1.57722 97.6774 9.98032 107.408 25.8581 107.408H95.3973C111.277 107.408 122.836 97.6774 121.083 85.7858L119.418 74.5141ZM44.4156 16.8429C44.7742 14.149 48.3738 11.6939 51.9682 11.6939H69.2906C72.8885 11.6939 76.4916 14.149 76.8467 16.8429L78.4767 29.096H42.789L44.4156 16.8429Z" fill="#F1F1F1"/>
<path d="M106.847 49.3487C100.874 51.159 89.9197 59.4432 79.5025 68.9308C66.7832 75.9598 58.2339 89.6635 53.2437 98.5618C52.8781 97.465 52.5535 96.4139 52.2605 95.402C51.9154 94.2359 51.6319 93.1163 51.3881 92.0579C49.5832 84.2108 50.3227 79.1641 52.6959 74.8837C54.2585 72.0688 56.5303 69.576 59.2377 66.8295C67.3214 58.6385 95.0509 48.4829 106.847 49.3487Z" fill="#2F5233"/>
<path d="M106.846 49.3516C85.6789 62.4525 108.111 91.7449 56.1719 99.1156C61.8714 90.5477 68.9034 79.6268 79.4412 68.9958C79.4617 68.973 79.4823 68.9575 79.5014 68.9347C89.9187 59.4461 100.873 51.1619 106.846 49.3516Z" fill="#2F5233"/>
<path d="M49.6554 74.8857C47.2822 79.166 46.5414 84.2127 48.3476 92.0599C48.5914 93.1183 48.8749 94.2378 49.22 95.404C34.1385 93.8474 30.0713 90.3034 25.1016 84.5887C19.6253 78.2836 17.2822 61.1788 21.044 55.2031C25.4453 64.6762 41.1965 66.4793 49.6554 74.8857Z" fill="#2F5233"/>
<path d="M48.3466 92.0588C37.8089 83.1999 21.3374 61.8758 21.043 55.2031C25.4443 64.6762 41.1955 66.4783 49.6544 74.8857C47.2812 79.165 46.5417 84.2117 48.3466 92.0588Z" fill="#2F5233"/>
<path d="M53.6388 91.8047C52.7224 96.6563 51.8059 101.508 51.2479 104.159C50.6231 107.127 50.2837 107.599 50.0251 108.121C49.8485 108.478 49.4801 108.99 47.6133 110.622C45.7466 112.255 42.3672 114.984 40.2826 116.541C38.198 118.099 37.5106 118.402 36.6289 118.714" stroke="#2F5233" stroke-width="4" stroke-linecap="round"/>
<path d="M57.3277 110.258C54.5923 113.543 53.1026 115.327 52.9003 115.542C52.6325 115.825 52.2103 116.156 51.1406 116.767C49.0134 117.983 47.1319 118.555 46.584 118.57C45.9117 118.677 45.3022 118.739 44.9371 118.77C44.7732 118.8 44.6525 118.861 44.4062 118.924" stroke="#F1F1F1" stroke-width="4" stroke-linecap="round"/>
<path d="M31.2227 119.297H35.9768" stroke="#F1F1F1" stroke-width="4" stroke-linecap="round"/>
<path d="M32.4414 127.961H35.9765" stroke="#F1F1F1" stroke-width="4" stroke-linecap="round"/>
<path d="M46.2148 128.141H52.6756" stroke="#F1F1F1" stroke-width="4" stroke-linecap="round"/>
<path d="M60.3555 128.328H68.279" stroke="#F1F1F1" stroke-width="4" stroke-linecap="round"/>
<path d="M75.9766 128.508H79.503" stroke="#F1F1F1" stroke-width="4" stroke-linecap="round"/>
<path d="M87.9102 128.297H91.1653" stroke="#F1F1F1" stroke-width="4" stroke-linecap="round"/>
<path d="M56.5898 104.883C56.9983 106.775 57.2087 108.155 57.3108 109.194C57.4579 110.691 57.8275 111.61 57.8658 111.784C57.9934 112.366 58.188 112.662 58.4966 113.236C58.6799 113.577 58.9863 113.948 59.848 114.66C60.4058 115.12 60.7655 115.236 61.8713 115.849C62.4294 116.159 63.083 116.348 63.7815 116.572C64.4387 116.784 65.0711 116.953 65.5611 117.06C66.0825 117.175 66.6429 117.342 67.2621 117.489C68.17 117.704 68.7826 117.83 69.3001 117.889C70.0104 117.97 70.9222 118.181 71.6327 118.279C72.5616 118.407 73.4502 118.377 74.1982 118.406C74.8747 118.433 75.8961 118.514 77.0309 118.562C78.6891 118.633 79.8985 118.591 80.3085 118.621C81.1269 118.631 81.755 118.611 82.382 118.582C82.9068 118.572 83.8513 118.572 84.8244 118.572" stroke="#F1F1F1" stroke-width="4" stroke-linecap="round"/>
</svg>
